<svg width="37" height="14" viewBox="0 0 37 14" fill="none" xmlns="http://www.w3.org/2000/svg">
<path d="M7.16877 13.3295V10.3488H0.368574L0 9.32531L7.29777 0.670612H8.56935V9.16371H10.5781V10.3488H8.56935V13.3295H7.16877ZM1.75073 9.16371H7.16877V2.68166L1.75073 9.16371Z" fill="black"/>
<path d="M22.0942 11.6596C21.0867 12.9165 19.7721 13.5449 18.1504 13.5449C16.5287 13.5449 15.2141 12.9225 14.2067 11.6775C13.2115 10.4206 12.7139 8.87641 12.7139 7.04492C12.7139 5.23737 13.2177 3.70514 14.2251 2.44824C15.2448 1.17936 16.5655 0.544922 18.1873 0.544922C19.809 0.544922 21.1174 1.17337 22.1126 2.43028C23.1077 3.67522 23.6053 5.21343 23.6053 7.04492C23.6053 8.85247 23.1016 10.3907 22.0942 11.6596ZM15.3308 10.7259C16.068 11.7434 17.0201 12.2521 18.1873 12.2521C19.3544 12.2521 20.2943 11.7493 21.0069 10.7438C21.7317 9.72632 22.0942 8.49336 22.0942 7.04492C22.0942 5.62043 21.7256 4.39943 20.9884 3.38194C20.2636 2.35247 19.3176 1.83774 18.1504 1.83774C16.9833 1.83774 16.0372 2.34649 15.3124 3.36398C14.5875 4.36951 14.2251 5.59649 14.2251 7.04492C14.2251 8.46942 14.5937 9.6964 15.3308 10.7259Z" fill="black"/>
<path d="M35.2678 11.6596C34.2604 12.9165 32.9458 13.5449 31.3241 13.5449C29.7023 13.5449 28.3877 12.9225 27.3803 11.6775C26.3852 10.4206 25.8876 8.87641 25.8876 7.04492C25.8876 5.23737 26.3913 3.70514 27.3987 2.44824C28.4185 1.17936 29.7392 0.544922 31.3609 0.544922C32.9826 0.544922 34.2911 1.17337 35.2862 2.43028C36.2814 3.67522 36.779 5.21343 36.779 7.04492C36.779 8.85247 36.2752 10.3907 35.2678 11.6596ZM28.5045 10.7259C29.2416 11.7434 30.1938 12.2521 31.3609 12.2521C32.5281 12.2521 33.4679 11.7493 34.1805 10.7438C34.9054 9.72632 35.2678 8.49336 35.2678 7.04492C35.2678 5.62043 34.8992 4.39943 34.1621 3.38194C33.4372 2.35247 32.4912 1.83774 31.3241 1.83774C30.1569 1.83774 29.2109 2.34649 28.486 3.36398C27.7612 4.36951 27.3987 5.59649 27.3987 7.04492C27.3987 8.46942 27.7673 9.6964 28.5045 10.7259Z" fill="black"/>
</svg>
