<svg width="36" height="14" viewBox="0 0 36 14" fill="none" xmlns="http://www.w3.org/2000/svg">
<path d="M5.3773 13.5449C3.69433 13.5449 2.18087 12.8806 0.836914 11.5518L1.78131 10.5283C2.97998 11.6775 4.18469 12.2521 5.39546 12.2521C6.30354 12.2521 7.04211 11.9888 7.61117 11.4621C8.18023 10.9353 8.46476 10.259 8.46476 9.43304C8.46476 8.65496 8.16813 8.02052 7.57485 7.52973C6.99368 7.03894 6.23695 6.79354 5.30466 6.79354C4.4329 6.79354 3.54298 7.03295 2.63491 7.51177L1.67235 6.88332L2.03558 0.760391H9.35468V2.07116H3.28872L3.0163 6.09326C3.87595 5.72218 4.71138 5.53663 5.52259 5.53663C6.7939 5.53663 7.84122 5.88977 8.66454 6.59603C9.49997 7.29032 9.91769 8.23001 9.91769 9.41509C9.91769 10.6361 9.49392 11.6296 8.64638 12.3958C7.79884 13.1619 6.70915 13.5449 5.3773 13.5449Z" fill="black"/>
<path d="M21.365 11.6596C20.3722 12.9165 19.0766 13.5449 17.4784 13.5449C15.8802 13.5449 14.5847 12.9225 13.5919 11.6775C12.6111 10.4206 12.1208 8.87641 12.1208 7.04492C12.1208 5.23737 12.6172 3.70514 13.61 2.44824C14.615 1.17936 15.9165 0.544922 17.5147 0.544922C19.113 0.544922 20.4024 1.17337 21.3832 2.43028C22.3639 3.67522 22.8542 5.21343 22.8542 7.04492C22.8542 8.85247 22.3578 10.3907 21.365 11.6596ZM14.6997 10.7259C15.4262 11.7434 16.3645 12.2521 17.5147 12.2521C18.665 12.2521 19.5912 11.7493 20.2935 10.7438C21.0078 9.72632 21.365 8.49336 21.365 7.04492C21.365 5.62043 21.0018 4.39943 20.2753 3.38194C19.561 2.35247 18.6287 1.83774 17.4784 1.83774C16.3282 1.83774 15.3959 2.34649 14.6815 3.36398C13.9672 4.36951 13.61 5.59649 13.61 7.04492C13.61 8.46942 13.9732 9.6964 14.6997 10.7259Z" fill="black"/>
<path d="M34.3477 11.6596C33.3548 12.9165 32.0593 13.5449 30.4611 13.5449C28.8629 13.5449 27.5674 12.9225 26.5745 11.6775C25.5938 10.4206 25.1034 8.87641 25.1034 7.04492C25.1034 5.23737 25.5999 3.70514 26.5927 2.44824C27.5976 1.17936 28.8992 0.544922 30.4974 0.544922C32.0956 0.544922 33.3851 1.17337 34.3658 2.43028C35.3465 3.67522 35.8369 5.21343 35.8369 7.04492C35.8369 8.85247 35.3405 10.3907 34.3477 11.6596ZM27.6824 10.7259C28.4088 11.7434 29.3472 12.2521 30.4974 12.2521C31.6477 12.2521 32.5739 11.7493 33.2761 10.7438C33.9905 9.72632 34.3477 8.49336 34.3477 7.04492C34.3477 5.62043 33.9844 4.39943 33.258 3.38194C32.5436 2.35247 31.6113 1.83774 30.4611 1.83774C29.3109 1.83774 28.3786 2.34649 27.6642 3.36398C26.9499 4.36951 26.5927 5.59649 26.5927 7.04492C26.5927 8.46942 26.9559 9.6964 27.6824 10.7259Z" fill="black"/>
</svg>
