<svg width="35" height="35" viewBox="0 0 35 35" fill="none" xmlns="http://www.w3.org/2000/svg">
<path fill-rule="evenodd" clip-rule="evenodd" d="M23.0533 2.72723H12.0262C6.97206 2.72723 2.60714 6.81816 2.60714 12.0454V22.9545C2.60714 28.1818 6.74233 32.2727 12.0262 32.2727H23.0533C28.1074 32.2727 32.4723 28.1818 32.4723 22.9545V12.0454C32.2425 7.04543 28.1074 2.72723 23.0533 2.72723ZM12.0262 0C5.36394 0 0.0800781 5.45452 0.0800781 12.0454V22.9545C0.0800781 29.5454 5.36394 35 12.0262 35H23.0533C29.7155 35 34.9993 29.5454 34.9993 22.9545V12.0454C34.9993 5.45452 29.7155 0 23.0533 0H12.0262Z" fill="black"/>
</svg>
