<svg width="130" height="28" viewBox="0 0 130 28" fill="none" xmlns="http://www.w3.org/2000/svg">
<path d="M28.0872 14.241V1.81252C28.0872 0.776813 28.8735 0 29.6599 0C30.4462 0 31.2326 0.776813 31.2326 1.81252V13.7231C31.2326 19.6784 33.5915 22.0088 39.6202 22.0088H43.814C44.8625 22.0088 45.3867 22.7856 45.3867 23.8213C45.3867 24.857 44.6003 25.6338 43.814 25.6338H39.096C32.0189 25.6338 28.0872 21.491 28.0872 14.241ZM85.4901 0.258943H87.8492C94.9262 0.258943 99.12 4.40176 99.12 11.6517V24.0802C99.12 25.1159 98.3336 25.8927 97.5473 25.8927C96.4989 25.8927 95.7125 25.1159 95.9746 24.0802V12.1696C95.9746 6.21429 93.6157 3.88391 87.8492 3.88391H86.2765C80.5099 3.88391 77.8888 6.21429 77.8888 12.1696V24.0802C77.8888 25.1159 77.1024 25.8927 76.3161 25.8927C75.2676 25.8927 74.4814 25.1159 74.7435 24.0802V11.6517C74.4814 4.40176 78.413 0.258943 85.4901 0.258943ZM11.3119 0.258943H13.6709C20.4859 0.258943 24.9419 3.88394 24.9419 10.875C24.9419 17.866 20.4859 21.4909 13.6709 21.4909H8.69077C7.64232 21.4909 7.11808 20.7142 7.11808 19.6785C7.11808 18.6428 7.90443 17.866 8.69077 17.866H13.1467C18.6511 17.866 21.2722 15.7946 21.2722 10.616C21.2722 5.43749 18.6511 3.36602 13.1467 3.36602H11.574C5.80754 3.36602 3.18637 5.6964 3.18637 11.6517V23.5624C3.18637 24.5981 2.40001 25.3748 1.61367 25.3748C0.82733 25.3748 -0.221061 24.5981 0.0410531 23.5624V11.1338C0.0410531 4.40173 4.23484 0.258943 11.3119 0.258943ZM113.798 0.258943H116.157C123.234 0.258943 127.428 4.40176 127.428 11.6517V17.607C127.428 18.6427 126.642 19.4195 125.856 19.4195C124.807 19.4195 124.021 18.6427 124.283 17.607V12.1696C124.283 6.21429 121.924 3.88391 116.157 3.88391H114.585C108.818 3.88391 106.197 6.21429 106.197 12.1696V13.7231C106.197 19.6784 108.556 22.0088 114.585 22.0088H124.021C126.38 22.0088 127.166 22.5266 128.477 24.0802L129.263 24.857C130.049 25.6338 130.312 26.6695 129.525 27.4463C128.739 28.2231 127.69 28.2231 126.904 27.1874L126.118 26.4106C125.593 25.8928 125.331 25.6338 124.283 25.6338H114.323C107.245 25.6338 103.052 21.491 103.052 14.241V11.6517C102.527 4.40176 106.459 0.258943 113.798 0.258943ZM49.5805 12.1696V13.7231C49.5805 19.6784 51.9395 22.0088 57.9681 22.0088H59.5408C65.3073 22.0088 67.6664 19.4195 67.6664 13.7231V12.1696C67.6664 6.21429 65.3073 3.88391 59.5408 3.88391H57.9681C51.9395 3.88391 49.5805 6.21429 49.5805 12.1696ZM57.4439 0.258943H59.803C66.88 0.258943 71.0738 4.40176 71.0738 11.6517V14.241C71.0738 21.491 67.1421 25.6338 59.803 25.6338H57.4439C50.3669 25.6338 46.173 21.491 46.173 14.241V11.6517C46.173 4.40176 50.1048 0.258943 57.4439 0.258943Z" fill="black"/>
</svg>
