<svg width="28" height="25" viewBox="0 0 28 25" fill="none" xmlns="http://www.w3.org/2000/svg">
<path d="M27.8853 14.9266C27.7712 14.758 27.5856 14.6455 27.3773 14.6186C24.6373 14.2767 22.7061 11.877 23.0641 9.25889C23.3169 7.40946 24.6721 5.86946 26.5356 5.31407C26.914 5.19824 27.1224 4.81115 27.0012 4.44958C26.9823 4.39337 26.956 4.33958 26.9227 4.28964C25.6653 2.12138 23.4295 0.630138 20.8658 0.25C19.574 0.308905 18.3008 0.569495 17.097 1.02136C16.2324 1.35382 15.3195 1.55742 14.3903 1.62497C13.4609 1.55742 12.548 1.35382 11.6835 1.02136C10.4796 0.569495 9.20649 0.308905 7.91461 0.25C5.22797 0.25 0 3.88957 0 10.5624C0 16.9038 4.84085 24.9998 8.63415 24.9998C10.0815 25.0121 11.5115 24.6974 12.8073 24.0813C13.2953 23.8241 13.8348 23.6684 14.3903 23.6248C14.9457 23.6684 15.4852 23.8241 15.9732 24.0813C17.2691 24.6974 18.6991 25.0121 20.1465 24.9998C23.154 24.9998 26.5487 20.0663 27.9704 15.4945C28.0299 15.3025 27.9988 15.095 27.8853 14.9266Z" fill="black"/>
</svg>
