<svg width="215" height="48" viewBox="0 0 215 48" fill="none" xmlns="http://www.w3.org/2000/svg">
<path d="M46.2959 24.2242V2.97856C46.2739 1.18677 47.4186 0 49.1137 0C50.8088 0 51.9315 1.18677 51.9315 2.97856L51.9095 23.4562C51.9095 33.6019 55.9161 37.8837 65.6463 37.8837L72.7348 37.8604C74.4299 37.8837 75.5526 39.0472 75.5526 40.8389C75.5526 42.6307 74.4299 43.8408 72.7348 43.8175H64.8317C52.9662 43.8408 46.2739 36.7667 46.2959 24.2242ZM141.748 0.34905H145.844C157.709 0.34905 164.336 7.37659 164.357 19.9424V41.2345C164.336 43.0263 163.235 44.1898 161.54 44.1898C159.845 44.1898 158.7 43.0263 158.722 41.2345L158.678 20.7336C158.7 10.5646 154.715 6.35272 145.007 6.35272H142.586C132.877 6.35272 128.848 10.5413 128.848 20.7336L128.871 41.2113C128.848 43.0263 127.747 44.1898 126.053 44.1898C124.358 44.1898 123.213 43.0263 123.235 41.2113V19.9424C123.213 7.37659 129.884 0.34905 141.748 0.34905ZM18.5141 0.34905H22.6087C33.8799 0.34905 41.1006 6.70176 41.1006 18.6625C41.1006 30.5303 33.8799 36.9994 22.6087 36.9761H14.5075C12.7905 36.9994 11.6898 35.7893 11.6898 33.9976C11.6898 32.2057 12.7905 31.0422 14.5075 31.0189L21.7723 31.0422C30.886 31.0422 35.443 27.3888 35.443 18.6625C35.443 9.9363 30.886 6.35272 21.7723 6.35272H19.3507C9.64247 6.35272 5.6139 10.5413 5.6139 20.7336L5.63591 41.2113C5.6139 43.0263 4.51319 44.1898 2.81811 44.1898C1.12303 44.1898 -0.021702 43.0263 0.000312038 41.2113V19.9424C-0.021702 7.37659 6.64856 0.34905 18.5141 0.34905ZM188.506 0.34905H192.602C204.467 0.34905 211.115 7.37659 211.115 19.9424V30.1346C211.093 31.9498 209.993 33.1599 208.298 33.1599C206.603 33.1599 205.458 31.9498 205.48 30.1346L205.436 20.7103C205.458 10.5413 201.473 6.32945 191.765 6.32945H189.344C179.635 6.32945 175.606 10.4948 175.606 20.7103V23.4329C175.606 33.6252 179.613 37.8604 189.344 37.8604H204.952C208.98 37.8604 210.389 38.9075 212.546 41.188L213.845 42.5609C215.254 44.0502 215.386 45.8652 214.175 47.1219C212.964 48.4017 211.313 48.3318 209.684 46.5867L208.254 45.0741C207.549 44.3527 206.91 43.7943 205.15 43.771H188.485C176.641 43.7943 169.971 36.7434 169.971 24.1776V19.9192C169.993 7.37661 176.641 0.34905 188.506 0.34905ZM82.0908 20.7336V23.4562C82.0908 33.6485 86.0974 37.8837 95.8276 37.8837H98.2491C107.957 37.8837 111.92 33.6485 111.92 23.4562V20.7336C111.92 10.5413 107.957 6.35272 98.2491 6.35272H95.8276C86.1193 6.35272 82.0908 10.5181 82.0908 20.7336ZM94.991 0.34905H99.0856C110.951 0.34905 117.599 7.37659 117.599 19.9424V24.2009C117.599 36.7667 110.951 43.7943 99.0856 43.7943H94.991C83.1255 43.7943 76.4772 36.7667 76.4772 24.2009V19.9424C76.4772 7.37659 83.1475 0.34905 94.991 0.34905Z" fill="white"/>
</svg>
