<svg width="60" height="22" viewBox="0 0 60 22" fill="none" xmlns="http://www.w3.org/2000/svg">
<path d="M11.5979 20.8537V16.0343H0.602778L0.00683594 14.3795L11.8065 0.385844H13.8625V14.1182H17.1104V16.0343H13.8625V20.8537H11.5979ZM2.83756 14.1182H11.5979V3.63748L2.83756 14.1182Z" fill="black"/>
<path d="M35.7305 18.1537C34.1016 20.186 31.9761 21.2021 29.354 21.2021C26.7318 21.2021 24.6063 20.1957 22.9774 18.1827C21.3683 16.1505 20.5638 13.6537 20.5638 10.6924C20.5638 7.76976 21.3783 5.29233 23.0072 3.26006C24.6559 1.20843 26.7914 0.182617 29.4135 0.182617C32.0357 0.182617 34.1513 1.19875 35.7603 3.23102C37.3694 5.24394 38.1739 7.73106 38.1739 10.6924C38.1739 13.615 37.3594 16.1021 35.7305 18.1537ZM24.795 16.644C25.9869 18.2892 27.5264 19.1118 29.4135 19.1118C31.3007 19.1118 32.8203 18.2989 33.9725 16.6731C35.1445 15.0279 35.7305 13.0343 35.7305 10.6924C35.7305 8.38912 35.1346 6.41492 33.9427 4.76974C32.7707 3.10522 31.2411 2.27295 29.354 2.27295C27.4668 2.27295 25.9372 3.09554 24.7652 4.74071C23.5932 6.36653 23.0072 8.35041 23.0072 10.6924C23.0072 12.9956 23.6031 14.9795 24.795 16.644Z" fill="black"/>
<path d="M57.0308 18.1537C55.4019 20.186 53.2764 21.2021 50.6542 21.2021C48.0321 21.2021 45.9065 20.1957 44.2776 18.1827C42.6686 16.1505 41.8641 13.6537 41.8641 10.6924C41.8641 7.76976 42.6785 5.29233 44.3074 3.26006C45.9562 1.20843 48.0917 0.182617 50.7138 0.182617C53.336 0.182617 55.4515 1.19875 57.0606 3.23102C58.6696 5.24394 59.4742 7.73106 59.4742 10.6924C59.4742 13.615 58.6597 16.1021 57.0308 18.1537ZM46.0953 16.644C47.2871 18.2892 48.8267 19.1118 50.7138 19.1118C52.601 19.1118 54.1206 18.2989 55.2728 16.6731C56.4448 15.0279 57.0308 13.0343 57.0308 10.6924C57.0308 8.38912 56.4349 6.41492 55.243 4.76974C54.0709 3.10522 52.5414 2.27295 50.6542 2.27295C48.7671 2.27295 47.2375 3.09554 46.0655 4.74071C44.8934 6.36653 44.3074 8.35041 44.3074 10.6924C44.3074 12.9956 44.9034 14.9795 46.0953 16.644Z" fill="black"/>
</svg>
