<svg width="209" height="46" viewBox="0 0 209 46" fill="none" xmlns="http://www.w3.org/2000/svg">
<path d="M44.9654 3.00662C44.9654 1.31812 46.1917 0.0517578 47.8268 0.0517578C49.4619 0.0517578 50.6883 1.31812 50.6883 3.00662V21.5801C50.6883 30.4447 53.9585 34.2438 62.9516 34.2438H70.3095C71.9446 34.2438 73.171 35.5102 73.171 37.1987C73.171 38.8871 71.9446 40.1535 70.3095 40.1535H62.5428C51.5058 40.1535 45.3742 33.8217 45.3742 22.4243L44.9654 3.00662ZM120.589 37.1987V18.2031C120.589 6.80574 126.721 0.473883 137.758 0.473883H141.437C152.474 0.473883 158.605 6.80574 158.605 18.2031V37.1987C158.605 38.8871 157.379 40.1535 155.744 40.1535C154.109 40.1535 152.882 38.8871 152.882 37.1987V18.6252C152.882 9.7606 149.612 5.96149 140.619 5.96149H138.575C129.582 5.96149 126.312 9.33848 126.312 18.6252V37.1987C126.312 38.8871 125.086 40.1535 123.45 40.1535C121.815 40.1535 120.589 39.3093 120.589 37.1987ZM0 38.465V18.2031C0 6.80574 6.13165 0.473883 17.1686 0.473883H20.8476C31.4758 0.473883 38.0162 6.80574 38.0162 17.3588C38.0162 27.9119 31.4758 34.2438 20.8476 34.2438H15.5335C13.8984 34.2438 12.6721 32.9774 12.6721 31.2889C12.6721 29.6004 13.8984 28.334 15.5335 28.334H20.8476C28.2056 28.334 32.2933 24.9571 32.2933 17.3588C32.2933 9.7606 28.2056 6.38361 20.4388 6.38361H17.5774C8.58431 6.38361 5.3141 9.7606 5.3141 19.0473V38.8871C5.3141 40.5756 4.08777 41.842 2.45267 41.842C1.22634 41.4199 0 40.1535 0 38.465ZM81.3465 18.6252V21.1579C81.3465 30.0225 84.6167 33.8216 93.6098 33.8216H96.0624C105.056 33.8216 108.326 30.4447 108.326 21.1579V18.6252C108.326 9.7606 105.056 5.96149 96.0624 5.96149H93.6098C84.6167 6.38361 81.3465 9.7606 81.3465 18.6252ZM183.132 0.473883H186.811C197.848 0.473883 203.979 6.80574 203.979 18.2031V25.3792C203.979 27.0677 202.753 28.334 201.118 28.334C199.483 28.334 198.257 27.0677 198.257 25.3792V19.0473C198.257 10.1827 194.986 6.38361 185.993 6.38361H183.541C174.547 6.38361 171.277 9.7606 171.277 19.0473V21.5801C171.277 30.4447 174.547 34.2438 183.541 34.2438H197.439C201.936 34.2438 203.162 35.088 205.206 37.6208L207.658 40.1535C208.885 41.4199 208.885 43.1084 207.658 44.3747C206.432 45.6411 204.797 45.6411 203.571 44.3747L200.709 41.4199C199.892 40.5756 199.483 40.5756 197.439 40.5756H182.723C171.686 40.5756 165.554 34.2438 165.554 22.8464V19.0473C165.554 6.80573 172.095 0.473883 183.132 0.473883ZM75.6236 22.0022V18.2031C75.6236 6.80574 81.7553 0.473883 92.7922 0.473883H96.4712C107.508 0.473883 113.64 6.80574 113.64 18.2031V22.0022C113.64 33.3995 107.508 39.7314 96.4712 39.7314H92.7922C81.7553 40.1535 75.6236 33.3995 75.6236 22.0022Z" fill="black"/>
</svg>
