<svg width="120" height="632" viewBox="0 0 120 632" fill="none" xmlns="http://www.w3.org/2000/svg">
<g filter="url(#filter0_i)">
<path d="M120 89.9694C119.606 66.8831 118.972 38.8325 118.972 38.8325C118.972 38.8325 119.452 8.75501 91.2932 1.47182C88.1397 0.703338 84.9118 0.282867 81.6672 0.217882C71.7842 -0.0397778 63.0317 -0.00542786 60 0.0117495C56.9683 0.0289268 48.2158 0.0117542 38.3329 0.217882C35.0881 0.281767 31.8602 0.702254 28.7068 1.47182C0.548091 8.75501 1.01056 38.8325 1.01056 38.8325C1.01056 38.8325 0.393948 66.8831 0 89.9694V93.0442C0.393948 140.179 1.01056 593.196 1.01056 593.196C1.01056 593.196 0.530963 623.274 28.7068 630.557C31.8602 631.327 35.0881 631.747 38.3329 631.811C42.5978 631.914 46.64 631.983 50.117 632C53.0554 630.462 56.3092 629.627 59.6232 629.561C63.28 629.45 66.9031 630.29 70.1399 632C73.5655 632 77.4708 631.914 81.5986 631.811C84.8434 631.747 88.0713 631.327 91.2247 630.557C119.383 623.274 118.904 593.196 118.904 593.196C118.904 593.196 119.538 140.179 119.932 93.0442L120 89.9694Z" fill="#CCF0EE"/>
</g>
<defs>
<filter id="filter0_i" x="0" y="0" width="125" height="637" filterUnits="userSpaceOnUse" color-interpolation-filters="sRGB">
<feFlood flood-opacity="0" result="BackgroundImageFix"/>
<feBlend mode="normal" in="SourceGraphic" in2="BackgroundImageFix" result="shape"/>
<feColorMatrix in="SourceAlpha" type="matrix" values="0 0 0 0 0 0 0 0 0 0 0 0 0 0 0 0 0 0 127 0" result="hardAlpha"/>
<feOffset dx="5" dy="5"/>
<feGaussianBlur stdDeviation="5"/>
<feComposite in2="hardAlpha" operator="arithmetic" k2="-1" k3="1"/>
<feColorMatrix type="matrix" values="0 0 0 0 0.8 0 0 0 0 0.941176 0 0 0 0 0.933333 0 0 0 1 0"/>
<feBlend mode="multiply" in2="shape" result="effect1_innerShadow"/>
</filter>
</defs>
</svg>
