<svg width="18" height="85" viewBox="0 0 18 85" fill="none" xmlns="http://www.w3.org/2000/svg">
<path d="M9.25085 18.303L16.7538 18.303C17.3866 18.2943 17.8057 18.7469 17.8057 19.417C17.8057 20.0872 17.3866 20.531 16.7538 20.531L9.52204 20.5223C5.93904 20.5223 4.42695 22.1063 4.42695 25.9531L4.43517 28.7556C4.42695 29.4257 4.01605 29.8696 3.38328 29.8696C2.7505 29.8696 2.32317 29.4257 2.33139 28.7556L2.33139 25.6311C2.32317 20.9401 4.8214 18.2943 9.25085 18.303ZM17.6824 56.0402L17.6824 57.659C17.6824 62.35 15.2006 64.9697 10.7629 64.9784L3.24357 64.9784C2.61079 64.9697 2.1999 64.5345 2.1999 63.8644C2.1999 63.1942 2.61079 62.7417 3.24357 62.7504L10.4835 62.733C14.0747 62.7417 15.5622 61.1664 15.5622 57.3283L15.5622 56.3709C15.5622 52.5328 14.083 50.9401 10.4835 50.9401L3.25179 50.9488C2.61079 50.9401 2.1999 50.5049 2.1999 49.8348C2.1999 49.1646 2.61079 48.7121 3.25179 48.7208L10.7629 48.7208C15.2006 48.7121 17.6824 51.3492 17.6824 56.0402ZM17.6824 7.31953L17.6824 8.93834C17.6824 13.3944 15.4389 16.249 11.2149 16.249C7.0238 16.249 4.73923 13.3944 4.74745 8.93833L4.74745 5.73555C4.73923 5.0567 5.16656 4.62153 5.79933 4.62153C6.43211 4.62153 6.843 5.0567 6.85122 5.73555L6.84301 8.60761C6.84301 12.2107 8.13322 14.0123 11.2149 14.0123C14.2966 14.0123 15.5622 12.2107 15.5622 8.60761L15.5622 7.65026C15.5622 3.81214 14.083 2.21945 10.4835 2.21945L3.25179 2.22815C2.61079 2.21944 2.1999 1.78428 2.1999 1.11414C2.1999 0.443987 2.6108 -0.00858053 3.25179 0.000122726L10.7629 0.000123055C15.2006 -0.00857997 17.6824 2.6285 17.6824 7.31953ZM17.6824 74.5258L17.6824 76.1446C17.6824 80.8357 15.2006 83.4641 10.7629 83.464L7.1635 83.464C6.52251 83.4553 6.09518 83.0202 6.09518 82.35C6.09518 81.6799 6.52251 81.2273 7.1635 81.236L10.4917 81.2186C14.083 81.2273 15.5704 79.652 15.5704 75.8139L15.5704 74.8566C15.5704 71.0184 14.0994 69.4257 10.4917 69.4257L9.53025 69.4257C5.93082 69.4257 4.43516 71.0097 4.43516 74.8566L4.43516 81.0271C4.43516 82.6198 4.06536 83.1768 3.26001 84.0298L2.77515 84.5432C2.24921 85.1002 1.60821 85.1525 1.16445 84.6738C0.712464 84.1951 0.737116 83.5424 1.35346 82.8983L1.88762 82.3326C2.14237 82.0541 2.3396 81.8017 2.34782 81.1055L2.34782 74.5171C2.3396 69.8348 4.82962 67.1977 9.26728 67.1977L10.7712 67.1977C15.2006 67.2064 17.6824 69.8348 17.6824 74.5258ZM10.4835 32.4544L9.52204 32.4544C5.9226 32.4544 4.42695 34.0384 4.42694 37.8853L4.42694 38.8426C4.42694 42.6807 5.9226 44.2473 9.52204 44.2473L10.4835 44.2473C14.083 44.2473 15.5622 42.6807 15.5622 38.8426L15.5622 37.8853C15.5622 34.0471 14.0912 32.4544 10.4835 32.4544ZM17.6824 37.5545L17.6824 39.1733C17.6824 43.8644 15.2006 46.4927 10.7629 46.4927L9.25906 46.4927C4.82141 46.4927 2.33961 43.8644 2.33961 39.1733L2.33961 37.5545C2.33961 32.8635 4.82141 30.2351 9.25907 30.2351L10.7629 30.2351C15.2006 30.2351 17.6824 32.8722 17.6824 37.5545Z" fill="white"/>
</svg>
