<svg width="6" height="6" viewBox="0 0 6 6" fill="none" xmlns="http://www.w3.org/2000/svg">
<path d="M5.85122 2.74279C5.86829 2.9084 5.86829 3.07532 5.85122 3.24093C5.81546 3.40588 5.76384 3.56696 5.69707 3.72191C5.64007 3.8734 5.56534 4.01756 5.47442 4.15136C5.38111 4.28479 5.27804 4.41111 5.1661 4.52927C5.04679 4.64685 4.91464 4.75059 4.77216 4.83848C4.63728 4.94168 4.48697 5.02284 4.32682 5.07897C4.17325 5.1484 4.01237 5.20025 3.84723 5.23357C3.68211 5.25081 3.51565 5.25081 3.35053 5.23357C3.1854 5.25081 3.01892 5.25081 2.8538 5.23357L2.37421 5.09614L1.92889 4.85565C1.65717 4.67465 1.42425 4.44106 1.24378 4.16855C1.14185 4.02972 1.05566 3.8799 0.986838 3.72191C0.933324 3.56975 0.887586 3.41497 0.84981 3.25813C0.832639 3.08678 0.832639 2.91413 0.84981 2.74279C0.832615 2.57718 0.832615 2.41022 0.84981 2.24462C0.84981 2.09001 0.849813 1.91824 0.986838 1.76364L1.22663 1.33419C1.32144 1.197 1.43053 1.07032 1.55207 0.956278C1.66544 0.839066 1.79188 0.73533 1.92889 0.64709C2.06774 0.550223 2.21714 0.469541 2.37421 0.406601C2.52653 0.33757 2.6881 0.291269 2.8538 0.269175H3.35053C3.51563 0.251421 3.68213 0.251421 3.84723 0.269175C4.01347 0.28857 4.17545 0.334988 4.32682 0.406601L4.75502 0.629921C5.039 0.814528 5.28356 1.05392 5.47442 1.33419C5.56006 1.47162 5.62856 1.62622 5.69707 1.76364C5.76384 1.91859 5.81546 2.07967 5.85122 2.24462C5.86841 2.41022 5.86841 2.57718 5.85122 2.74279Z" fill="white"/>
</svg>
