<svg width="108" height="110" viewBox="0 0 108 110" fill="none" xmlns="http://www.w3.org/2000/svg">
<path d="M106.738 35.0179C106.738 35.0179 107.217 4.47665 76.6436 0.663281C66.5551 0.319735 57.1346 0.354092 54.103 0.37127C51.0713 0.388447 41.6336 0.371267 31.5451 0.663281C0.971357 4.47665 1.45093 35.0179 1.45093 35.0179C1.45093 35.0179 0.868598 61.5569 0.508906 82.4617C0.495881 83.6327 0.69314 84.7964 1.09126 85.8972C9.94652 109.482 30.997 109.224 30.997 109.224H77.2431C77.2431 109.224 98.2936 109.482 107.149 85.8972C107.555 84.7985 107.752 83.6333 107.731 82.4617C107.337 61.5226 106.738 35.0179 106.738 35.0179Z" fill="#F9F9F9"/>
</svg>
